<svg xmlns="http://www.w3.org/2000/svg" viewBox="0 0 468.95 481.77"><defs><style>.cls-1{fill:#ccdcf1;}.cls-2{fill:#c9ebfb;}.cls-3{fill:#c1e7fb;}.cls-4{fill:#bccfeb;}.cls-5{fill:#dce9f7;}.cls-6{fill:#e2edf9;}.cls-7{fill:#caeafb;}.cls-8{fill:#c9d9f0;}.cls-9{fill:#e0f3fd;}.cls-10{fill:#dfebf8;}.cls-11{fill:#b8cae9;}.cls-12{fill:#f0f8fe;}.cls-13{fill:#d2e0f3;}.cls-14{fill:#bae5fa;}.cls-15{fill:#bcceea;}.cls-16{fill:#f1f9fe;}.cls-17{fill:#b8cbe9;}.cls-18{fill:#cadaf0;}.cls-19{fill:#c8d8ef;}.cls-20{fill:#b5c8e7;}.cls-21{fill:#f2fafe;}.cls-22{fill:#e1ecf8;}.cls-23{fill:#deeaf7;}.cls-24{fill:#d0def2;}.cls-25{fill:#b0c4e5;}.cls-26{fill:#bacce9;}.cls-27{fill:#e2eef9;}.cls-28{fill:#b9cbe9;}.cls-29{fill:#90a8d7;}.cls-30{fill:#869cd0;}.cls-31{fill:#acc1e4;}.cls-32{fill:#a5bbe1;}.cls-33{fill:#8da6d6;}.cls-34{fill:#9bb2dc;}.cls-35{fill:#95d6f6;}.cls-36{fill:#8ed4f5;}.cls-37{fill:#c1e8fb;}.cls-38{fill:#99d8f6;}.cls-39{fill:#7e98ce;}.cls-40{fill:#93abd9;}.cls-41{fill:#7892ca;}.cls-42{fill:#aec2e4;}.cls-43{fill:#8ba4d5;}.cls-44{fill:#91a9d7;}.cls-45{fill:#99b0db;}.cls-46{fill:#a4b9e0;}.cls-47{fill:#afc3e5;}.cls-48{fill:#bdcfeb;}.cls-49{fill:#abbfe3;}.cls-50{fill:#a7bde2;}.cls-51{fill:#b1c5e6;}.cls-52{fill:#b2c5e6;}.cls-53{fill:#8cd2f5;}.cls-54{fill:#b8e4fa;}.cls-55{fill:#a1b7df;}.cls-56{fill:#97aeda;}.cls-57{fill:#98b0db;}.cls-58{fill:#96aeda;}.cls-59{fill:#abc0e3;}.cls-60{fill:#b0c3e5;}.cls-61{fill:#b1c4e6;}.cls-62{fill:#819dd1;}.cls-63{fill:#8ea7d6;}.cls-64{fill:#90a9d7;}.cls-65{fill:#8ea6d6;}.cls-66{fill:#7d97cd;}.cls-67{fill:#9db3dd;}.cls-68{fill:#7dccf2;}.cls-69{fill:#a2b8df;}.cls-70{fill:#708bc6;}.cls-71{fill:#b7cae8;}.cls-72{fill:#9eb5de;}.cls-73{fill:#7490c9;}.cls-74{fill:#4361ad;}.cls-75{fill:#5d7abc;}.cls-76{fill:#4362ae;}.cls-77{fill:#506fb5;}.cls-78{fill:#3858a7;}.cls-79{fill:#5774b9;}.cls-80{fill:#4465af;}.cls-81{fill:#516fb5;}.cls-82{fill:#5c7abc;}.cls-83{fill:#506eb5;}.cls-84{fill:#4160ac;}.cls-85{fill:#5ebfed;}.cls-86{fill:#65c3ee;}.cls-87{fill:#7691ca;}.cls-88{fill:#4f6eb5;}.cls-89{fill:#4261ad;}.cls-90{fill:#5471b7;}.cls-91{fill:#4b69b2;}.cls-92{fill:#4463ae;}.cls-93{fill:#2e4a9f;}.cls-94{fill:#4d6bb3;}.cls-95{fill:#4868b1;}.cls-96{fill:#5a77ba;}.cls-97{fill:#5975b9;}.cls-98{fill:#4c6bb3;}.cls-99{fill:#4b6ab3;}.cls-100{fill:#4e6db4;}.cls-101{fill:#5d7bbd;}.cls-102{fill:#5875b9;}.cls-103{fill:#4866b0;}.cls-104{fill:#4464af;}.cls-105{fill:#3b5ba9;}.cls-106{fill:#5a78bb;}.cls-107{fill:#5e7bbd;}.cls-108{fill:#53b9ea;}.cls-109{fill:#4768b1;}.cls-110{fill:#4364ae;}.cls-111{fill:#3c5ba9;}.cls-112{fill:#4b6ab2;}.cls-113{fill:#5573b8;}.cls-114{fill:#3e5eab;}.cls-115{fill:#4a69b2;}.cls-116{fill:#304da1;}.cls-117{fill:#3e5daa;}.cls-118{fill:#3b5aa8;}.cls-119{fill:#4666b0;}.cls-120{fill:#3d5caa;}.cls-121{fill:#4968b1;}.cls-122{fill:#2c499f;}.cls-123{fill:#324fa2;}.cls-124{fill:#3452a4;}.cls-125{fill:#3d5daa;}.cls-126{fill:#4969b2;}</style></defs><g id="Layer_2" data-name="Layer 2"><g id="Layer_1-2" data-name="Layer 1"><path class="cls-1" d="M336.61,177.1c-8.9-16-23.72-25.93-39.2-33.44-36-17.47-72.83-16-108.35,2.13C168.35,156.4,154.69,175,141,193.11a6.5,6.5,0,0,1-2-3.2c.51-10.3,10.35-15.79,12.89-25.06,14.93-16.71,32.13-30,54.17-36.12,23.25-3.51,46.38-7.51,69.89-.93a160.78,160.78,0,0,1,24.44,9.07c13.25,5.75,24.56,14.32,34.9,24.26,4.66,4.67,7.87,10.62,13,14.85,4,6.62,10.29,11.38,14.55,17.8,1.86,4.12,7.35,6.66,5.48,12.42-11.36-3.18-16.23-13.67-23.8-21.12A23.47,23.47,0,0,1,336.61,177.1Z"/><path class="cls-2" d="M222.79,290.89c-10.34-35.28,6.37-65.22,51.11-60.38,22.9,2.48,45.62,1.53,68.41,2.1,17.52.44,34.85,1.15,51.1,8.77,4.86,2.28,9.51,4.65,11.93,9.82,1.65,3,4.85,5.3,3.77,9.37a5.57,5.57,0,0,1-2.56,2.31c-3.5.65-5.39-1.69-7.35-3.93-.83-.87-1.58-1.78-2.34-2.7-2.47-2.76-4.68-5.75-7.59-8.11a66.4,66.4,0,0,0-28-6.26c-25.89.1-51.56-4.36-77.51-3.11-10.33.5-20.68-4.38-31.16.12-3.23,1.38-6.54,2.45-9.29,4.69-3.5,4.49-7.66,8.47-10.46,13.5-4.3,6.4-8,12.93-5,21.08.2,6.11,6.09,11,3.76,17.67C226.15,298.53,225.34,293.18,222.79,290.89Z"/><path class="cls-3" d="M405.3,261.8l2.69,0,1.8,1.17c3.58,4,4.5,9,4.79,14.16.18,46.26-.2,92.46-9.25,138.08-8.41,18-22,26-42.27,24.05-19.27-1.81-28.14-15.3-37.16-29.32,9.14-1.17,12.43,6.92,17.64,11.59,7.73,6.93,15.45,12.71,26.68,11.41,10.82-1.25,19.23-5.47,23-16.42,7.67-12.09,8-25.95,8.16-39.33.27-28.92.73-57.75,5.14-86.41a27.81,27.81,0,0,0-2.25-15.41C402.31,270.77,401.47,266.05,405.3,261.8Z"/><path class="cls-4" d="M125,34.29C160.3,13.28,199.09,3.36,239.54.38A135.8,135.8,0,0,1,302.2,10.5a2.55,2.55,0,0,1-.1,3.42,9,9,0,0,1-3.71,1.19,16,16,0,0,1-3.89-.47c-8.94-1.48-17.76-4-27-3.34a39,39,0,0,1-8-1C248.33,7.64,237,8.64,225.72,9.48a25,25,0,0,1-3.79,1c-5.58,1.21-11.62-.19-16.87,3-10.91,3.86-22.39,5.85-33.21,10a48.7,48.7,0,0,0-13.72,4.36,27.66,27.66,0,0,1-3.28,1.25,48.64,48.64,0,0,0-11,4.55c-6.37,2.8-12.26,6.49-18.36,9.83a8.15,8.15,0,0,1-3.61.14C116.23,38.23,122.48,36.89,125,34.29Z"/><path class="cls-5" d="M135.61,460.13c-12.37.29-20.28-8.84-29.12-15A232,232,0,0,1,46,383.59c-7.77-11.54-16.51-22.79-18.89-37.15a2,2,0,0,1-.72-2.13c.26-.7.51-1.06.75-1.05a4.49,4.49,0,0,1,3.63.47c13.35,21.25,27,42.32,42.51,62.07,3.39,6.28,9,10.38,14.44,14.66,8.34,4.61,14.85,11.67,22.75,16.88,7.23,8.28,19,10.61,25.78,19.43A3.19,3.19,0,0,1,135.61,460.13Z"/><path class="cls-6" d="M27.18,343.68c0,.92,0,1.84-.07,2.76-3.22-1.64-6.4-3.83-7.15-7.32C15.14,316.53,2.7,295.47,6,271.24c1.46-10.73-8.9-19.57-5.18-30.32C6.19,225.41,6,209.27,7,193.31c.79-12.93,6.46-23.74,12.11-34.76a6.69,6.69,0,0,1,2.2,2.79c1.66,6-.56,11.78-1,17.68a11.87,11.87,0,0,1-1.74,3.06c-3.37,3.58-4.17,8.17-5,12.77a27.57,27.57,0,0,1-.9,3.58c-1.17,5.72-.51,11.49-.53,17.25-.1,6.21.37,12.44-.87,18.59a26.18,26.18,0,0,0,0,18.07c1.3,7,.74,14,.88,21,.11,5.22-.64,10.51.92,15.64a33.21,33.21,0,0,1,.84,3.65,33.58,33.58,0,0,0,4.54,13.59,40.77,40.77,0,0,1,2.9,6.8c1.37,4.8.84,10,2.78,14.65C24.55,333.13,31.16,337.45,27.18,343.68Z"/><path class="cls-7" d="M222.79,290.89l8,5.27c7.48-.26,9.49,6.79,13.66,10.69,8.61,8,15.6,17.58,22.64,27a19.78,19.78,0,0,0,7.07,9.22c3.35,4.61,7.41,8.62,10.95,13.07a44.08,44.08,0,0,0,14.16,14.59,138.91,138.91,0,0,1,21.11,24.74c1,3.94,4.9,7.2,2.93,11.87-8.48-.91-12.51-8.85-16.34-13.86-25.16-32.89-54.7-62-80.15-94.59C224.89,296.42,222.86,294.2,222.79,290.89Z"/><path class="cls-8" d="M302.24,13.08c0-.86-.05-1.72,0-2.58,24.57-1.36,44,12.21,64,23a188.51,188.51,0,0,1,60.31,51,1.92,1.92,0,0,1,.78,2.07q-.36,1.05-.72,1.05c-6.26.88-9.37-4-12.88-7.55a216.64,216.64,0,0,0-31-25.86C360.6,37.94,336.07,26.6,310,18.29,307.22,16.89,304.09,15.94,302.24,13.08Z"/><path class="cls-9" d="M405.33,415.19c.8-39.38,8.17-78.32,8-117.77,0-8.35,0-16.71,0-25.06-1.87-3.48-2.29-7.67-5.3-10.58h0q-1.32-5.29-2.65-10.58c8.29,4.4,10.92,11.21,10.77,20.56-.47,30.21-.39,60.44-.11,90.66C416.17,380.84,409.69,397.76,405.33,415.19Z"/><path class="cls-10" d="M19.17,161.17c0-.87,0-1.75-.05-2.62-3.39-13.28,7.54-22.07,12.19-31.9,10.08-21.32,25-40.35,41.8-57.41C74.77,67.55,77.67,67.07,80,66a6.09,6.09,0,0,1,2,5.06c-1.26,6.6-6.38,10.25-11,14.32a22.92,22.92,0,0,0-8.36,8.18c-2.43,3.19-5.22,6.11-7.08,9.71-1.09,2-2.18,4-3.43,6-3.37,4.47-7.86,8.17-9.54,13.82a18.38,18.38,0,0,1-1.72,3,30.63,30.63,0,0,0-6.71,12c-1.49,3.94-2.78,7.95-4.52,11.79C26.66,154.08,26.74,161.24,19.17,161.17Z"/><path class="cls-11" d="M175.25,335.83c16,10.11,33.77,16.37,51.09,23.56,4.32,1.79,7.69,4,9.66,8.2a7.39,7.39,0,0,1-5.54,2.15c-18.82-6.18-38.87-9.44-54.65-22.91-4-6.09-15.59-6.13-13.69-17C168.8,326.78,172,331.42,175.25,335.83Z"/><path class="cls-12" d="M419.14,361.47V266.89h4.19C423.71,298.53,425.52,330.17,419.14,361.47Z"/><path class="cls-13" d="M175.25,335.83c-4.12-2.21-7.45-6.3-12.87-5.47-6.29-.84-9.25-5.89-12.84-10.15-6.68-10.21-12.42-21-19.61-30.93-2.94-4.08-3.14-8.72-2.83-13.48a11.63,11.63,0,0,1,2.14-5.76,2.57,2.57,0,0,1,3.66-.31c9.31,23.27,19.16,46.16,40.77,61.3C174.78,331.8,174.75,334.19,175.25,335.83Z"/><path class="cls-1" d="M426.42,87.37c0-.94.07-1.89.1-2.84,23.77,21.19,35.48,47.19,31.69,79.38a2.52,2.52,0,0,1-3.58-.31c-3.24-4.63-2-10.4-4-15.36-1.17-5-1.3-10.19-3-15.08-.51-10.65-8.55-17.57-13.06-26.24C433.76,99.61,422.15,96.79,426.42,87.37Z"/><path class="cls-14" d="M323.31,407.34c-1.36-3.75-5.64-6.06-5.24-10.68,6.34-1.71,8.79,3.91,12.74,6.72,4.26,4.33,8.51,8.68,12.86,12.93,14.38,14,25.7,15.34,43,4.92a15,15,0,0,1,4.72-2.12,4.48,4.48,0,0,1,3.36,1.4c-7.12,15.17-27.28,20.83-42.1,12.46-10.55-6-16.56-16.89-26.78-23.05Z"/><path class="cls-15" d="M222.93,473.41c-10.07,9.19-22.42,10-34.15,6.32-16.46-5.13-34-8.09-48-19.54,1.79-2.29,4.3-2.69,7-2.68a16.47,16.47,0,0,1,3.68.68c8.59,4.12,17.15,8.3,26.7,9.85a28.94,28.94,0,0,1,3.41,1c2.78,1,5.62,1.78,8.49,2.49a36.46,36.46,0,0,0,19.71-.48,23.74,23.74,0,0,1,5.88-.73C218.43,470.47,221.07,471,222.93,473.41Z"/><path class="cls-16" d="M461.93,121.22c9.47,18.18,9.27,39.5,0,49.37Z"/><path class="cls-17" d="M222.93,473.41l-8.12-.07c1-8.06,9.81-6.8,13.72-11.56,3.21-3.9,8-6.39,10.77-10.79,4.22-6.08,8.37-12.2,12.7-18.2a4.62,4.62,0,0,1,5.28.93C254.49,454.44,241.39,466.25,222.93,473.41Z"/><path class="cls-18" d="M368.31,206.2l-7.91-10.6c7.28-3.95,10.9,2.86,16,5.4,10.41,6.38,21.66,4.72,32.79,3.19,4.68-.65,9.2-2.55,14.06-1.34a2.23,2.23,0,0,1,.67,3.45C405.35,218.33,386.82,216.28,368.31,206.2Z"/><path class="cls-19" d="M80,71.31c0-1.76,0-3.52,0-5.28,14.49-11.3,27.87-24.17,45-31.74.12,3-5.72,3.85-3,7.89,1.66,3.48-1.31,4.09-3.28,5.33-9.67,3.62-16.8,10.79-24.23,17.54C89.94,67.73,86.47,73,80,71.31Z"/><path class="cls-20" d="M230.74,367.59H236c11.49,4,12.86,17,21.18,23.81,1.94,2.22,1.28,4.82,1.05,7.35a4.52,4.52,0,0,1-3.09,2,6.7,6.7,0,0,1-5-2.33C245.29,387.91,236.84,380,230,371A3.52,3.52,0,0,1,230.74,367.59Z"/><path class="cls-21" d="M132.94,224.75c7.62,7.37,7.63,30.36,0,39.67A47.07,47.07,0,0,1,132.94,224.75Z"/><path class="cls-22" d="M257.18,399.33V391.4c2.61,6.74,6,13.31,7.61,20.29,1.7,7.45.94,15-7,19.47-1.88-1.23-2.35-3.09-2.39-5.16,1.18-6.42,1.48-12.84-.37-19.22A8.8,8.8,0,0,1,257.18,399.33Z"/><path class="cls-23" d="M132.94,224.75q0,19.83,0,39.67c0,1.77,0,3.54,0,5.31l-2.45-.08c-6.83-8-3-17.59-3.77-26.45-.54-6.51-.18-13.1,0-19.65a28.08,28.08,0,0,1,.44-4.58,11.49,11.49,0,0,1,1.83-4.14,2.91,2.91,0,0,1,4-.69Z"/><path class="cls-24" d="M423.9,206.3c0-.88,0-1.76,0-2.64.46-3.86,3.31-6.07,5.83-8.53a26.87,26.87,0,0,1,2.83-2.17c4.76-2.42,7.75-7.66,13.48-8.54l1.69.68C442.81,195.58,436.43,204.39,423.9,206.3Z"/><path class="cls-24" d="M455.48,163.86l2.73,0c.4,9-5.34,15-10.5,21.19l-.16-.11c-4.4-5.15-.57-10.55-.52-15.84a11.56,11.56,0,0,1,2.65-5.64A4.7,4.7,0,0,1,455.48,163.86Z"/><path class="cls-25" d="M257.38,426l.36,5.15a15.79,15.79,0,0,0-.46,2.56l-4.92,0c-2-11.61-3.89-23.23,2-34.37l2.77-.05.21,7.68A34.47,34.47,0,0,1,257.38,426Z"/><path class="cls-26" d="M132.91,214.14c-.83,0-1.67.1-2.5.18-3.18-11.07-.08-18.26,10.36-24l.18,2.8Z"/><path class="cls-27" d="M336.61,177.1a16.86,16.86,0,0,1,7.9,8C339.46,184.81,336.8,182.18,336.61,177.1Z"/><path class="cls-28" d="M149,460.08l-8.18.11-5.17-.06c0-.87,0-1.73-.08-2.6,2.09-2.49,4.88-3,7.91-2.76C146.29,455.48,149.28,456.07,149,460.08Z"/><path class="cls-29" d="M333.94,163.83a232,232,0,0,0-31.8-23.64c-21.54-12.45-45-15.43-69.37-14.36a3.74,3.74,0,0,1-2.72-3.1,5.31,5.31,0,0,1,2.81-3.24c8.6-2.74,17.46-1,26.19-1.55,10.1-.84,19.22,3.54,28.82,5.38a46.56,46.56,0,0,1,11.55,3.38,17.14,17.14,0,0,1,4.76,3.28c6.51,6.61,15.15,10.32,22.22,16.18,4.47,4,9.85,7.34,11.12,13.93C337.23,162.2,335.61,163,333.94,163.83Z"/><path class="cls-30" d="M230.74,121.53c0,.9,0,1.79,0,2.69-8,5.39-17.9,4.52-26.54,7.83-19.55,7.4-36,19.4-50.28,34.41-2.53,4.3-5.34,4.46-8.42.56-.82-2.57.29-4.65,1.69-6.65a33.59,33.59,0,0,1,7.79-6.72,43.45,43.45,0,0,0,8.72-7.64c3.3-3.28,6.59-6.57,10.94-8.49,7.44-3.47,14.26-8.15,21.78-11.48a26.13,26.13,0,0,1,3.26-1.42c4.15-1.05,7.54-3.73,11.45-5.32a22.6,22.6,0,0,1,5.82-1.1C221.83,118.27,226.89,117.43,230.74,121.53Z"/><path class="cls-31" d="M204.24,132.05c8-5.33,17.43-6.09,26.54-7.83,19.45-1,38.49.8,57,7.19a34,34,0,0,1,14.32,8.78c-13-3.19-24.92-9.14-38.49-11.13-17.25-2.53-33.63-.6-50.26,2.83C210.45,132.49,207.29,132,204.24,132.05Z"/><path class="cls-32" d="M147.14,166.76c2.39,2.65,4.58.77,6.82-.3-1,9.86-11.36,14.48-13.19,23.85-5.28,7.21-10.2,14.58-10.36,24,0,.84-.14,1.67-.24,2.49a2.53,2.53,0,0,1-3.61-.48c-4.31-8.48-.47-15.92,3.32-23.13,3.21-6.1,6.69-12,8.24-18.81C139.87,170.36,142.06,166.84,147.14,166.76Z"/><path class="cls-33" d="M373.63,203.52c-4-3.31-7.69-7.17-13.23-7.92-3.17-7-12.23-9.71-13.48-18.17a2.33,2.33,0,0,1-.7-2.13c.17-.74.35-1.11.55-1.11,2.62-1.15,4.72.09,6.78,1.48,4.06,3.41,7.53,7.46,11.62,10.85,5.58,6.33,15.95,6.36,19.79,15a4.81,4.81,0,0,1-2,3.11C379.79,204.88,376.53,205.69,373.63,203.52Z"/><path class="cls-34" d="M347.34,174.13l-.42,3.3c-6.78-2.2-8.68-9.05-13-13.6.92-.88,1.85-1.75,2.78-2.62C345,161.65,346.93,167.25,347.34,174.13Z"/><path class="cls-35" d="M394.78,420.51l-2.68-.06c-3.48-4.65,0-8.38,1.89-12.09,3.15-6.27,2.28-12.84,2.2-19.41-.36-33.69,4.46-67.21,2.88-100.93-.39-8.3-.38-16.6-1.9-24.81a9.15,9.15,0,0,1,2.89-6.72l5.24,5.31c7.66,47.64-1.87,95-2.66,142.45C402.53,410.86,397.8,415.29,394.78,420.51Z"/><path class="cls-36" d="M400.06,256.49l0,5.34c-2.14,1-4.57,1.17-6.39,0-16.21-10.46-34.44-9.23-52.47-9.38-25.53-.22-50.91-4.45-76.51-2.85-5.27.33-10.59-.34-15.78.88-5.88,1.06-10.52,4.26-14.54,8.55a5.21,5.21,0,0,1-3.67.54,1.88,1.88,0,0,1-.7-2.1c.27-.68.53-1,.79-1-.11-6.06,6-8.34,8-13.11a16.34,16.34,0,0,1,6.41-2.71c11-4.22,22.35-3.49,33.85-2.75,28.93,1.87,57.92,2.88,86.87,4.51,6.09.35,12.32.69,18.1,3.1l4.15.83c4.91,2.27,6.91,8,11.93,10.18Z"/><path class="cls-37" d="M244,243.26l-5.27.07c7.55-10,19-11.2,29.53-10.16,30,3,60.11,2.45,90.07,4.94,12.69,1.06,26.26.15,36.4,10.51-1.77,1.57-3.53,1.41-5.26-.07h0c-16.53-7.48-34.61-4.65-51.68-5.78C313,241.12,288,238.61,263,239.14,256.23,239.28,249.94,240.1,244,243.26Z"/><path class="cls-38" d="M265.15,335.86Q248,316,230.79,296.16c-.76-6.45-7.5-11.15-5.4-18.44l1.57-.63c3,.85,4.28,3.42,5.73,5.82,1.76,3.42,3.34,6.94,5.32,10.25,2.63,5.09,6.85,8.81,10.91,12.66,16.49,16.2,31.7,33.45,44.23,52.95a6.89,6.89,0,0,1-.95,3.56c-5.18,2-6-3-8.54-5.29-4.86-3.35-9.83-6.6-10.66-13.21A27,27,0,0,1,265.15,335.86Z"/><path class="cls-38" d="M230.76,256.44l.06,2.74c2.17,7.26-.74,13.07-5.26,18.43l-.17.11C220.57,269,224.17,262.32,230.76,256.44Z"/><path class="cls-35" d="M389.48,248.55l5.26.07,5.31,7.87C394.71,256.26,391.8,252.8,389.48,248.55Z"/><path class="cls-2" d="M408,261.78c4.78,2,5.54,6,5.3,10.58C409.86,269.67,408.42,266,408,261.78Z"/><path class="cls-39" d="M170,21.15c10.71-6,23.2-6.31,34.36-10.83A103.59,103.59,0,0,0,225.5,8.24a252.89,252.89,0,0,1,41.64,1c10.19-.72,19.85,2.37,29.7,4.08h0c2.06,1.69,4.81,1.07,7.07,2.1,12,5.24,26.56,4.62,35.92,15.83a5.44,5.44,0,0,1-3.08,2.35c-7.62,1-14-3.16-21.06-4.78-3.09-1.15-6.27-2-9.41-3-10.84-3.82-21.8-7-33.48-6.59a31.5,31.5,0,0,1-6.33-1,157.68,157.68,0,0,0-45.81.11c-12.11,1.66-24.17,3.51-35.87,7.25-4.69,1.5-9.39,2.13-14-.5A2.71,2.71,0,0,1,170,21.15Z"/><path class="cls-40" d="M267.88,10.43H222.79c-.85-.6-1.11-1.17-.79-1.72s.61-.79.92-.79h0a106.63,106.63,0,0,1,37-.07l7.81.12c.93.48,1.27,1,1,1.58S268.17,10.43,267.88,10.43Z"/><path class="cls-41" d="M117.06,44.89c2-.34,4.08-.4,5-2.71l2.8-.09c4.93-2.34,9.15-6.4,15.12-6.29A3.38,3.38,0,0,1,141.6,39c-6.66,9-15.07,14.15-26.73,12.17C112.28,47.88,115.08,46.53,117.06,44.89Z"/><path class="cls-41" d="M154.14,26.43c.81-.09,1.62-.17,2.44-.24a9,9,0,0,1,7.54-.7c2.18,8.28-6.57,8.32-9.57,12.71a13,13,0,0,1-3.81,1.44c-3.51.46-6.92.46-9.63-2.35l-.42-.57c-1.11-4.28,3.67-3.3,4.9-5.5A40.79,40.79,0,0,0,154.14,26.43Z"/><path class="cls-42" d="M259.88,7.84l-37,.07A54.83,54.83,0,0,1,259.88,7.84Z"/><path class="cls-42" d="M267.88,10.43c-.05-.82-.11-1.65-.19-2.47,10.13-.51,20,.54,29.15,5.33Z"/><path class="cls-43" d="M146.24,31.74l-5.54,5-15.88,5.37c4.65-6.24,11.54-8.5,18.58-10.52A1.69,1.69,0,0,1,146.24,31.74Z"/><path class="cls-42" d="M222.92,7.92c0,.84-.09,1.68-.13,2.51-6.14-.66-12.32,5.38-18.43-.11C210.05,5.66,216.73,8.72,222.92,7.92Z"/><path class="cls-44" d="M164.86,26.59l-8.28-.4c3.62-4,8.21-5.34,13.42-5,.09,1,.19,2.05.28,3.07C169.66,27.72,167.71,28.18,164.86,26.59Z"/><path class="cls-42" d="M302.21,15.78l-5.41-2.5,5.44-.2c2.91.11,6-.35,8,2.61A6.38,6.38,0,0,1,302.21,15.78Z"/><path class="cls-45" d="M146.24,31.74l-2.84-.17a14.66,14.66,0,0,1,10.74-5.14C152.63,29.88,149.89,31.49,146.24,31.74Z"/><path class="cls-46" d="M21.62,328c-4.39-4.63-1.69-10.45-2.64-15.65a9.9,9.9,0,0,1-.54-8,3.36,3.36,0,0,1,3.72-.7c5.42,11.81,9.69,24.12,14.8,36.07,4.15,11.56,10.37,22,17.73,31.75a22.91,22.91,0,0,1,1.72,3.25c3.05,7.2,8.29,12.88,13.09,18.86,3.18,4,7.11,7.63,5.76,13.53a2.28,2.28,0,0,1-3.21.12c-17.24-19.06-32.42-39.5-42.33-63.46C27.86,338.14,24.14,333.4,21.62,328Z"/><path class="cls-47" d="M143.61,457.46l-8.08.07c-9.07-5.83-19.89-9.15-26.52-18.49a6.55,6.55,0,0,1,5.4-2.1C124.82,442.81,138.3,444.32,143.61,457.46Z"/><path class="cls-32" d="M114.32,439H109L85.47,423c-1.75-1.66-1.53-3.54-.6-5.5C99.2,418.48,107.89,427.22,114.32,439Z"/><path class="cls-48" d="M85.45,417.65c0,1.77,0,3.54,0,5.31-4.13-5.51-12.75-7.17-13.42-15.66l2.82-.17C82.09,406.92,85.57,410.48,85.45,417.65Z"/><path class="cls-11" d="M21.62,328c4.57,4.3,8.65,8.87,8.1,15.8l-2.54-.16C26.94,337.89,20.46,334.32,21.62,328Z"/><path class="cls-49" d="M19.33,303.82c-.12,2.85-.23,5.71-.35,8.57l-2.48-5.55c-2.09-4.3-2.85-9.13-5.23-13.32A19.44,19.44,0,0,1,11.2,291c-3.13-5,.72-11-2.48-16l-.27-23.56a26.2,26.2,0,0,1,0-16.4q.1-10.47.22-20.92c3.41-5.83-.78-12.7,2.55-18.54l0,0c2.24-5.1,2.35-10.93,5.36-15.76.71-.2,1.42-.42,2.12-.67a6.84,6.84,0,0,1,2.83,3.4c2.11,12.21-5.43,23-5.2,34.93A193.74,193.74,0,0,0,16.49,269c1,7.63,1.73,15.33,4.34,22.68C22.34,295.94,22.52,300.11,19.33,303.82Z"/><path class="cls-50" d="M19.34,182.76c-.21-1.18-.43-2.36-.65-3.54-4-6.13,2.16-12,.48-18.05q4-6.57,8-13.13c4-.59,4.41,2.37,5.11,5.07C31.09,163.33,26.37,172.43,23,182A3,3,0,0,1,19.34,182.76Z"/><path class="cls-51" d="M11.23,195.61c-.9,6.17,2.33,12.91-2.55,18.54C9.44,208,6.5,201.26,11.23,195.61Z"/><path class="cls-51" d="M16.57,179.88c-.29,5.76-1.42,11.24-5.36,15.76C11.06,189.73,11.37,184,16.57,179.88Z"/><path class="cls-51" d="M8.46,235.07q0,8.19,0,16.4C4.89,246,4.87,240.53,8.46,235.07Z"/><path class="cls-52" d="M11.27,293.52c4.19,3.48,5.48,8.1,5.23,13.32C12.44,303.31,11,298.74,11.27,293.52Z"/><path class="cls-51" d="M8.72,275c4.55,4.74,1.79,10.62,2.48,16C6.81,286.23,9.26,280.4,8.72,275Z"/><path class="cls-53" d="M291.58,362.34l.05-2.72c10.76.71,14.9,9.53,20.44,16.65a26.94,26.94,0,0,0,7.75,11.17c3.51,4,8,7.11,10.21,12.21a5.07,5.07,0,0,1-1.41,5l-10.55-8c-7.14-7.84-12.63-17.16-21.12-23.81C295.64,369.1,290.2,367.47,291.58,362.34Z"/><path class="cls-54" d="M291.58,362.34c1.6,3.61,5.65,6,5.37,10.51-5.71-4.19-11.93-8-13.29-15.81Z"/><path class="cls-54" d="M265.15,335.86a15.64,15.64,0,0,1,7.85,8C268.06,343.47,265.41,340.85,265.15,335.86Z"/><path class="cls-55" d="M426.42,87.37c.28,8,10.68,10.16,10.73,18.34a4.73,4.73,0,0,1-3.24,1.55,11.55,11.55,0,0,1-6.59-3.19c-6.69-7.68-12.7-16-20.42-22.74-4.36-4.65-8.9-9.14-13.45-13.6-3.39-3.92-7.8-7-10.07-11.85a3.93,3.93,0,0,1,.9-3.22c12.43,5.9,21.84,15.58,31.45,25C419.15,81.08,422.85,84.16,426.42,87.37Z"/><path class="cls-56" d="M384.28,52.66c0,.89,0,1.77,0,2.66-3.27,1.81-6.11.08-8.4-1.69C364.52,44.86,350,41.39,339.38,31.56c-10.62-9.45-25.27-9.38-37.17-15.78l8-.09C337.32,23.18,362.7,34.11,384.28,52.66Z"/><path class="cls-57" d="M80,71.31l13-8.26,1.25,1.3c1.15,3.28-.39,5.82-2.27,8.27-4.33,4.74-9,9.11-13.42,13.8-4,3.5-7,8.29-12.69,9.59l-1.78-.31a4,4,0,0,1-1.24-3.2c.27-4.17,4-5.62,6.36-8.22Q74.64,77.8,80,71.31Z"/><path class="cls-58" d="M29.92,153.59c-.25-2.18-.63-4.29-2.75-5.55l5-10.75a74,74,0,0,1,8.17-13.08l0,0c2-4.46,3.55-9.3,8.69-11.39a3.29,3.29,0,0,1,3,1.67c1.22,7.47-5.15,12-7.08,18.22-2.93,5.19-5.36,10.64-8.08,16C35.12,151.12,33.86,154.28,29.92,153.59Z"/><path class="cls-58" d="M50.69,108.1c.15-2.1.62-4,2.68-5.13,3.41-2.83,4.53-8.68,10.58-8l.58.51a5.7,5.7,0,0,1,1.24,3.47,9.84,9.84,0,0,1-1.2,3.54c-4.34,3.92-5.51,11.58-13.35,11.41l-.55-.42A4.2,4.2,0,0,1,50.69,108.1Z"/><path class="cls-59" d="M50.69,108.1c0,1.79,0,3.58,0,5.36L40.35,124.24C39.6,116.16,45.4,112.3,50.69,108.1Z"/><path class="cls-59" d="M64,95l-10.58,8c.52-5.18,4-8.08,8.1-10.5.86-1.29,1.72-1.23,2.59,0C64.06,93.3,64,94.12,64,95Z"/><path class="cls-60" d="M40.32,124.21c-.61,5.68-4.23,9.48-8.17,13.09C32,131.12,35.09,127,40.32,124.21Z"/><path class="cls-61" d="M64.06,92.47H61.47c.28-4.93,3-7.52,7.78-8.19Z"/><path class="cls-62" d="M230.74,367.59c0,.88.06,1.75.07,2.62-1.81,2.28-4.32,2.66-7,2.6a14.73,14.73,0,0,1-3.7-.85,35.49,35.49,0,0,0-12.1-4.67c-9.72-2.67-18.69-7.08-27.37-12-4.44-2.53-9.43-5.09-8.35-11.74,1.9-1.18,3.75-1.28,5.51.3,10.06,10.73,24.29,13.08,37.17,17.81C220.23,363.56,225.65,365.15,230.74,367.59Z"/><path class="cls-63" d="M177.8,343.81l-5.43.06c-8.5,1.87-12.28-5.16-17.6-9.31-3.4-4.44-9.65-7.66-6.41-14.94a2.93,2.93,0,0,1,3.53.14q5.24,5.31,10.49,10.6C164.61,338.18,173.59,338.27,177.8,343.81Z"/><path class="cls-64" d="M151.89,319.76l-3.44.31c-12-1.6-12.63-12.14-16.12-20.45-.34-3.81-2.73-7.76.6-11.38C140.17,298.19,146.81,308.51,151.89,319.76Z"/><path class="cls-26" d="M130.22,219.45q.1,25.1.23,50.2c-.06,1.79-.13,3.59-.2,5.39-8.44-1.87-5.15-9-6.34-14.13,0-10.1-.34-20.21.21-30.29C124.35,226.22,123.13,220.38,130.22,219.45Z"/><path class="cls-65" d="M127.55,261.88c.67,4.43-1.29,9.41,2.7,13.16.71,4.44-1.13,9.39,2.68,13.2l2.52,10.85c-6.29.62-7.74-4.38-9.94-8.53a134.82,134.82,0,0,1-3.75-15.89c-.22-4.26-.41-8.51,2.08-12.31A2.53,2.53,0,0,1,127.55,261.88Z"/><path class="cls-66" d="M384.08,203.7l.14-2.83c3.66-4,8.62-3.59,13.23-3.38,7.63.33,14.32-2.12,20.8-5.64a27.4,27.4,0,0,0,10.11-7.49c5-4.17,10.19-8.19,12.29-14.78,7.41-11.51,3.71-24.84,6.13-37.16a2.43,2.43,0,0,1,3.51-.23c3.34,4.76,2.57,10.32,3,15.65,1.14,5.79,2.94,11.69-2.82,16.29l0,5.27c-3.61,10.6-8.4,20.36-18.74,26.15l0,0c-7.67,6.47-16.82,9.53-26.48,11.44-6.46-1.83-13.31.53-19.71-1.87C385,204.64,384.56,204.17,384.08,203.7Z"/><path class="cls-67" d="M450.29,132.19l-2.77.07c-7-7.52-14.48-14.81-13.4-26.43l3-.12C442.27,114.17,451.14,120.77,450.29,132.19Z"/><path class="cls-67" d="M450.47,164.13c2.62-5.14,2.52-10.75,2.82-16.29,4.3,4.85,1.57,10.67,2.19,16Z"/><path class="cls-68" d="M328.62,404.66v-5.31a4.37,4.37,0,0,1,3.56-.64c7.07,3.73,11.78,10.33,18.26,14.85,13.84,9.62,25.11,8.87,37.27-3.08,7.51-4.17,2.7-16.33,12.34-19.1,2.59,11.12-4.1,19.71-7.95,29.07-16.36,15.47-33.59,15.4-49.35-.41C337.84,415.11,333.32,409.79,328.62,404.66Z"/><path class="cls-66" d="M85.45,417.65,74.87,407.13c-5-11.95-17.73-18.73-21.23-31.69,6.65-1.48,9,4,12.25,7.76,6.17,7.32,11.76,15.11,18.23,22.18a287.38,287.38,0,0,0,33.41,26.21c5.5,3.19,10.73,6.79,16,10.33a31.65,31.65,0,0,0,10.4,5,19,19,0,0,1,3.08,1.32,44.58,44.58,0,0,0,10.53,5c6.29,3.13,13,5.14,19.71,7a26.07,26.07,0,0,1,3.46,1.17c12.71,4.6,25.34,4.55,37.88-.62,7.39-1.72,12.23-8.43,19.65-10.1a5.41,5.41,0,0,1,3.33,1.56c-5.89,10.85-16.45,15.77-26.74,21l-5.15.3c-4.87,2-9.94.7-14.92.91-4.4-2.52-9.67-1.81-14.2-3.84h0a173,173,0,0,1-29.1-10.58l-1.24-.08-1.25,0-5.35-2.62c-8.44-8.24-20.1-11.38-29.29-18.43C104.88,431.66,96.42,423,85.45,417.65Z"/><path class="cls-55" d="M151.45,460.13c10.36,1.71,19.85,5.83,29.1,10.58A44.49,44.49,0,0,1,151.45,460.13Z"/><path class="cls-69" d="M193.93,473.3l15.74.34c-7.14,3.62-14.24,3.81-21.31-.21A4,4,0,0,1,193.93,473.3Z"/><path class="cls-55" d="M193.93,473.3l-5.57.13c-2.88-.1-6,.35-7.81-2.72C185.09,471.16,190.08,469.32,193.93,473.3Z"/><path class="cls-70" d="M241.56,452.32l-2.89-.12c-1.84-3-.68-6.08-.24-9.14a16.13,16.13,0,0,1,2.1-5.22c10.93-11.38,8.66-24.58,5.22-38,1.23-2.67,3-4.19,6.16-3.19.83.9,1.67,1.79,2.51,2.69-.28,11.48,2.41,23.14-2.06,34.37C252.47,442.1,245.46,446.3,241.56,452.32Z"/><path class="cls-71" d="M405.33,205.83l26.39-10.3c-1.51,3.77-4.39,6.23-7.84,8.13-16.76,5.4-33.53,9.79-50.25-.14l10.45.18.05,0C391,206.81,398.44,203.29,405.33,205.83Z"/><path class="cls-72" d="M117.06,44.89l-2.35,5.61c1.86,2.84.49,4.89-1.63,6.78-6.29,2.59-11.06,9.43-19.19,6.92-.29-.38-.57-.76-.85-1.15A58.73,58.73,0,0,1,117.06,44.89Z"/><path class="cls-73" d="M251.91,396.69l-4.66,2.58a6.28,6.28,0,0,1-2.82-2.27c-4.28-10.44-11.94-17.75-21.58-23.23a3.06,3.06,0,0,1-.28-3.39l8.24-.17C240.91,376.59,247.48,385.79,251.91,396.69Z"/><path class="cls-20" d="M257.38,426q0-9.5,0-19C261.17,413.34,261.19,419.68,257.38,426Z"/><path class="cls-50" d="M127.55,261.88a22.75,22.75,0,0,0-2.61-.07c-8.58-6.51-6.07-15.81-5.72-24.32.23-5.64,2.08-11.17,3.08-16.79,1-2.17,2.11-4.14,5-4l2.91.1c0,.89,0,1.77.05,2.65C124.66,233.3,129.08,247.77,127.55,261.88Z"/><path class="cls-71" d="M431.69,195.55c7.62-7.74,13.3-16.85,18.74-26.15L447.55,185C441.61,187.53,439.37,195.61,431.69,195.55Z"/><path class="cls-74" d="M214.86,121.47l-4.94.4c-3.34,2.28-7.38,3.06-10.85,5h0c-8.9,2.47-16.11,8.51-24.68,11.69a2.77,2.77,0,0,1-2.55-2.78c7.82-14.71,22.93-18.34,36.8-22.35,24.3-7,49.16-6.55,73.74-.22,7.64,2,15.21,4.28,20.16,11.21.83,2.76-.82,4-3,5L289,126.73C264.93,116.08,240,117.47,214.86,121.47Z"/><path class="cls-75" d="M214.86,121.47c25.48-8.91,50.26-8,74.17,5.26-10,.19-18.75-6.91-29-5.2a69.57,69.57,0,0,0-29.23,0v0Z"/><path class="cls-76" d="M299.56,129.49l2.67-2.62c2.15-2.17,4.72-2.47,7.53-1.71,5.83,2.92,10.82,7.14,16.31,10.6,4,2.55,7.85,5.78,6.14,11.62-2.52,2.83-4.54.19-6.73-.63a245.67,245.67,0,0,0-23.17-14.66Z"/><path class="cls-77" d="M326,145.44l5.36,2.59c8.23.32,11.28,7.13,15.57,12.41,1.33,5.75,9.84,9.14,5.54,16.75l-5.09-3.05c-3.65-4.22-5.62-9.82-10.62-12.93l-10.87-12.93c-.85-.66-1.13-1.3-.81-1.92S325.66,145.44,326,145.44Z"/><path class="cls-75" d="M326,145.44c0,.95-.07,1.9-.1,2.84-8.4-4.6-17-8.88-23.56-16.19C311.77,133.74,318.67,139.93,326,145.44Z"/><path class="cls-30" d="M230.75,121.55a37.27,37.27,0,0,1,29.23,0Z"/><path class="cls-78" d="M147.14,166.76,141,174.55c-5.37,6-4.73,16.13-13.45,19.9a5.93,5.93,0,0,1-3.51-1.6c0-15.15,8.63-25.73,18.91-35.43a7,7,0,0,1,6,.6,2.6,2.6,0,0,1,.11,3.74Z"/><path class="cls-79" d="M175.28,137.48c7.48-4.54,14.18-10.85,23.8-10.56-7.48,5.24-15.21,10-23.84,13.18-.91-.6-1.2-1.18-.89-1.76S175,137.48,175.28,137.48Z"/><path class="cls-80" d="M175.28,137.48c-.05.87-.06,1.75,0,2.62l-10.53,8c-1.85,1.44-3.75,1.66-5.7.19.69-8.34,4.2-13.18,13.47-10.88Z"/><path class="cls-80" d="M149.12,161.76l-.35-3.16c-.77-6.24,2.38-8.61,8.22-8.31,1.43,1.9,1.19,3.69-.35,5.4Z"/><path class="cls-81" d="M156.64,155.69v-5.12c-.48-2.22.4-3.1,2.62-2.62l5.45.12C162.79,151.43,160.42,154.3,156.64,155.69Z"/><path class="cls-79" d="M199.07,126.92a12.64,12.64,0,0,1,10.85-5C207.54,126.2,203.63,127.27,199.07,126.92Z"/><path class="cls-82" d="M127.66,193c6.22-4.87,5.23-15,13.35-18.47.29,7.38-3.89,13.11-7.46,18.87-4.49,7.23-6.25,15-6.29,23.28L125,219.46c-1.81,1.57-3.7,1.48-5.64.25C119.4,210,121.57,200.88,127.66,193Z"/><path class="cls-83" d="M421.37,193.11c-10.72,10.53-24.31,7.37-37.15,7.76-7.11-4.37-16.25-5.41-21.32-13.09,3.48-3.19,6.92-1,10.38,0,1.18.38,2.32.84,3.45,1.33,13.51,8,27.57,3.65,41.52,1.86A6.55,6.55,0,0,1,421.37,193.11Z"/><path class="cls-84" d="M373.64,190.32l-10.74-2.54c-4.15-2.88-8-6-10.47-10.59.58-6.91-8.31-9.12-7.9-15.94.65-.63,1.7-1.45,2.14-1.12C357.61,168.44,368.08,177.19,373.64,190.32Z"/><path class="cls-85" d="M400.05,391.38c-4.8,6.42-1.31,17-10.56,21.18-6.77-11.16-1.43-22.33.81-33.11,1.63-7.8,3.6-15.43,3.09-23.38-1.44-22.52,3.52-44.75,2.75-67.24-.66-19.13-6.3-24.61-25.41-25.84-29.33-1.9-58.66-3.94-87.86-7.64-14.94-1.89-29.83-.24-43.42,7.39a5.15,5.15,0,0,1-4-1.21c-1.64-7.31,4.59-9.4,8.6-13,22.59-5.57,45.57-3,68.19-1.66,11.8.72,23.67,1.85,35.43,1.44,19-.65,36.77,1.78,52.39,13.49,5.44,28.25,3.29,56.79,1.5,85.05C400.59,361.75,401,376.57,400.05,391.38Z"/><path class="cls-35" d="M244,243.26c4.1-4.94,9.7-5.25,15.55-5.35,39-.69,77.78,4.69,116.74,5.59,4.64.1,9.53,1.43,13.18,5.05-36.17-5.36-72.85-3.65-109.14-7.74A102.24,102.24,0,0,0,244,243.26Z"/><path class="cls-68" d="M225.56,277.61c-.11-6.68,2.77-12.5,5.26-18.44l2.6-.05,1.16,1.76c1.07,7.76,1,15.34-3.81,22.08Z"/><path class="cls-68" d="M244,248.56l-8,10.57q-1.26,1.83-2.6,0l-.05-.05C234.25,252.88,237.71,249.29,244,248.56Z"/><path class="cls-86" d="M233.47,259.17l2.6,0c0,.89,0,1.77,0,2.66.65.62,1.61,1.3,1.6,2-.47,27.71,21.47,42,36.58,60.05,17.8,21.25,36.13,42.07,54.64,62.73,3.26,3.65,6.61,7.53,2.39,12.7l-2.67,0a27.88,27.88,0,0,1-10.55-10.62c-2.42-3.69-5.43-6.94-8-10.55a77.05,77.05,0,0,0-18.49-18.56q-22.49-26.43-45-52.87c-2.93-4.89-7.49-8.46-10.64-13.17-3.32-2.77-4.78-6.45-5.24-10.62C229.61,274.8,232.65,267.11,233.47,259.17Z"/><path class="cls-68" d="M236,293.58c5.05,3.17,10,6.47,10.64,13.17C241.73,303.47,236.83,300.18,236,293.58Z"/><path class="cls-87" d="M339.38,31.56c16.69,4.64,30.56,14.6,44.86,23.76,4.31,2.78,8.14,6,10.58,10.67a4.87,4.87,0,0,1-4.63,1.54,10.61,10.61,0,0,1-3.09-1.43,48.41,48.41,0,0,0-9.79-6.59C367.53,53.15,358.4,45.58,346.59,43c-3.4-3.75-10-4.56-10.29-11.19Z"/><path class="cls-88" d="M164.86,26.59c1.81-.79,3.61-1.59,5.42-2.37,16.94-1,32.53-9.83,49.86-8.6.25.62.51,1.23.77,1.85a5.15,5.15,0,0,1-2.44,3c-10.36,4.11-21.66,4.53-32.16,8.1-10.41,1-18.73,8.27-29,9.6a4.94,4.94,0,0,1-3.43-1.55C154.55,30,162,30.77,164.86,26.59Z"/><path class="cls-89" d="M336.3,31.8c3,4.34,10.26,3.59,11.71,9.79-5.68,4.13-10.11-1.44-15.21-1.93-1.18-.33-2.32-.75-3.46-1.19-6.92-2.61-13.64-5.81-21-7-2.22-1.34-5.38-2.24-2.88-5.89,3.47-.55,6.94-1.12,10.24.69Z"/><path class="cls-90" d="M273.11,15.79a66,66,0,0,1,34.64,7.78c-1.59,1.55-3.79,1.85-5.7,2.76-10.5,1.92-19.71-1.68-28.59-6.69A2.84,2.84,0,0,1,273.11,15.79Z"/><path class="cls-90" d="M220.14,15.62a98.61,98.61,0,0,1,47.92,0c-5.12,5.38-11.84,3.26-18,3.85-3.9,0-7.81,0-11.72,0-6.18-.38-12.73,1.13-18.06-3.56Z"/><path class="cls-91" d="M249.25,15.91l18.8-.26,5.06.14c0,.86,0,1.73,0,2.6C264.63,22.76,256.22,26.26,249.25,15.91Z"/><path class="cls-91" d="M302.14,23.79l5.61-.22c2.91.1,5.91-.09,7.92,2.66l-10.9.2a2.37,2.37,0,0,1-3,.24A2.1,2.1,0,0,1,302.14,23.79Z"/><path class="cls-92" d="M111.75,55.38l3-4.88a49,49,0,0,0,26.41-13.21l10.48-.07a2.78,2.78,0,0,1-.21,3.26c-4.87,3.35-10.44,5.61-14.85,9.68-10.93,7.78-20.86,17.35-34.94,19.46a5.16,5.16,0,0,1-1.82-3.17C101.75,60.6,108.11,59.46,111.75,55.38Z"/><path class="cls-93" d="M151.42,39.58c.06-.78.12-1.57.17-2.36a11.2,11.2,0,0,1,2.26-.58l2.91.35c12.64-2.69,23.86-9.79,36.69-11.93,36.38-9.76,72.59-6.29,108.75,1.3.86,0,1.71.07,2.57.07,1.21,2,3.17,2.54,5.34,2.6,6.42,4.36,13.84,6,21.17,7.94h0c25.4,8.53,47.35,23.12,68.58,39a19.84,19.84,0,0,1,3.27,1.69c3.37,3.43,7.35,6.3,9.87,10.54a25.21,25.21,0,0,0,6.38,8.06,22.75,22.75,0,0,1,3.57,3.83c2.53,4.6,6.72,8.1,8.71,13.06,2.44,8.7,10.25,14.55,12.47,23.38a15.48,15.48,0,0,1,.77,3.67c2.05,9.14-.11,17.83-2.77,26.47a10.74,10.74,0,0,1-1.55,3.41c-6.07,6.78-13.48,12.33-18.53,20.09a8.94,8.94,0,0,1-5.77,1.55c-14.41,5.36-28.59,3.86-42.65-1.37h0l-29.11-29.07L331.32,148c-.46-6.74-5.54-9.36-10.65-11.87-4.35-2.14-8.32-4.66-10.56-9.2-27.28-16.39-57-22.91-88-16.67a127.29,127.29,0,0,0-74.62,45,21.89,21.89,0,0,1-4,3.41c-7,11-15.05,21.45-18.54,34.35,3.14,4.93-.33,9.86-1.9,13.39-8.55,19.31-4.55,39.07-3.76,58.74,3.26,10.69,6.19,21.5,9.72,32.11,8.49,14.14,16.45,28.66,29,39.84,11,10.44,23.09,19.46,36.87,26,9,6,19.12,9.4,29.35,12.55,7.83,5,16.66,8.94,19.59,19,6.32,15.28,8.67,30.37-2.14,44.82l-.44,4.78c-17.91,20.36-39.46,25.71-64.74,15.7-3.24-.62-6.12-2.35-9.34-3a128.73,128.73,0,0,0-29.13-12.56c-9.42-4.25-17.89-10-26.08-16.24a36.66,36.66,0,0,1-4-3.44c-3.8-3.45-7.22-7.36-11.83-9.86a25.56,25.56,0,0,1-2.81-2.16,62.8,62.8,0,0,1-11-11.94c-10-14.88-23.65-27-31.9-43.24-1.83-3.61-5.21-5.86-8.74-7.78-3.53-2.41-4-6.72-6.28-10C23,314.81,20.39,287.2,14,260.62c-2.56-24.38,3.83-47.77,7.84-71.42.59-4.79,1.19-9.6,2.09-14.35a19.29,19.29,0,0,0,5.72-11.53,22.24,22.24,0,0,1,4-10.23c4.2-6.76,8.39-13.52,10.67-21.25,5.73-11,13.5-20.74,19.92-31.33h0a15.83,15.83,0,0,1,2.3-2.18,13.1,13.1,0,0,0,6.23-6.82A10.64,10.64,0,0,1,76.13,88c4.38-2.67,7.07-7.18,11.15-10.17,5.12-2.32,8.1-7.87,13.87-9.19,12-6.22,23.71-12.8,34.42-21A111.36,111.36,0,0,0,151.42,39.58Z"/><path class="cls-94" d="M16.64,261.76c4.17,13.22,8.32,26.41,8,40.54C24.35,316.77,37.12,326.83,38,341a2.23,2.23,0,0,1-3.28.37c-4.95-12.12-12.94-23.18-12.95-37-2.3-12.14-6.23-23.92-7.89-36.19-1.33-1.85-1.29-3.88-.78-6A2.35,2.35,0,0,1,16.64,261.76Z"/><path class="cls-95" d="M83,406.92c-12.45-8-17.21-23.18-29.35-31.48a15.79,15.79,0,0,1-.18-2.38,4.51,4.51,0,0,1-.63-5.19c9.5,1.91,12.19,11.09,18,16.94,3.72,3.75,6.63,8.22,9.92,12.34,1.71,2.49,3.68,4.88,3.19,8.22Z"/><path class="cls-96" d="M53.54,367.62c0,1.82,0,3.63-.07,5.44-9.91-8.42-14.7-19.86-18.78-31.73L38,341l5.47,7.93C47.64,354.69,53.25,359.72,53.54,367.62Z"/><path class="cls-97" d="M14.18,266.83c3.41,12.31,8.05,24.37,7.56,37.47-.81-.15-1.61-.31-2.41-.48.21-11.57-7.68-21.78-5.6-33.66Q12.06,268.24,14.18,266.83Z"/><path class="cls-97" d="M14.18,266.83l-.45,3.33c-3.85-17.88-3.39-35.79-.27-53.71l1.76,1.69c.29,14.53.47,29.05-.94,43.54Z"/><path class="cls-97" d="M19.34,182.76a24.42,24.42,0,0,1,2.39-.57c1.65,1.74,1.36,3.92,1.4,6-2,9.89.26,21.12-8.93,28.78l-.74-.55C12,204.62,19.48,194.35,19.34,182.76Z"/><path class="cls-81" d="M22.06,187.87l-.33-5.68c-.78-10.54,5.73-19,8.19-28.61l4.85-6.07c2,1.87,1.86,3.88.42,6a18.17,18.17,0,0,0-2.78,10.42c-2.82,3-2.54,7.49-5.33,10.45-3.92,3.84-1.75,8.89-2.67,13.33C23.71,188.86,22.93,189,22.06,187.87Z"/><path class="cls-68" d="M310.12,378.18c4.26,2.31,7.72,5.21,8,10.55C313.84,386.41,310.38,383.51,310.12,378.18Z"/><path class="cls-98" d="M434.12,105.83c3.29,9.41,11.39,16.38,13.4,26.43,3.21,13.92,3.27,27.44-4.92,40a4,4,0,0,1-1.51-3.75c.94-10.32,5.3-20.5,1.32-31h0c-.58-9.26-8.12-14.92-11.72-22.63.11-3.3-2.49-5.66-3-8.73a5.28,5.28,0,0,1,1.58-3.29Z"/><path class="cls-99" d="M429.24,102.79l-.18,3.09c-4.82,1.46-5.42-3.4-8-5.34l-2.58-2.69c-2.48-2.8-4.37-6.19-7.83-8q-4.06-5.24-8.15-10.46c1.83-1.79,3.72-1.54,5.64-.16C417,85.45,423.43,93.84,429.24,102.79Z"/><path class="cls-77" d="M408.17,79.19l-5.64.16c-.81,0-1.61-.08-2.42-.13-3.6-4.37-11.05-5.69-10.53-13.31l5.24.08A49,49,0,0,1,408.17,79.19Z"/><path class="cls-100" d="M88,79.42c-2.68,4.32-5.93,8.07-10.68,10.25-1.56-1.74-1.47-3.46,0-5.19C80.69,79,85.43,75,90.57,71.32A2,2,0,0,1,93.62,71C95,75.94,90.23,76.85,88,79.42Z"/><path class="cls-101" d="M93.26,71.44l-2.69-.12c1.11-2.38,2.21-4.76,3.32-7.12,6.82-1.19,10.76-8.2,17.86-8.82-1.78,5.31-7.3,6.83-10.67,10.52C98.83,68.25,98.27,73,93.26,71.44Z"/><path class="cls-102" d="M77.34,84.48c0,1.73,0,3.46,0,5.19l-2.6,2.82a25.31,25.31,0,0,1-7.91,8l-1.28.11-1.28-.09c.09-1.69.17-3.37.27-5.06Z"/><path class="cls-102" d="M64.25,100.51c-2.24,12.87-12.42,21.11-18.5,31.74a2.21,2.21,0,0,1-3.25-.4q4.35-9,8.72-18C56.67,110.5,57.53,102.65,64.25,100.51Z"/><path class="cls-103" d="M42.5,131.85l3.25.4c.24,8.95-5.61,14.87-10.57,21.24q-.2-3-.41-6C36.1,141.68,39,136.62,42.5,131.85Z"/><path class="cls-104" d="M193.74,365a95.08,95.08,0,0,1-37.06-26.35c-1.41-1.91-1.66-3.79.11-5.64l15.58,10.9c9.61,12,24.23,15.1,37.23,21.1a2.44,2.44,0,0,1-.49,3.6C203,371.64,198.91,366,193.74,365Z"/><path class="cls-105" d="M193.74,365l15.82,2.66c4.1-1.43,7.36.81,10.74,2.48l2.27.28a15.25,15.25,0,0,1,.47,2.21,4,4,0,0,1-.16,5.54C212.48,375.24,201.7,373.22,193.74,365Z"/><path class="cls-106" d="M220.3,370.1c-3.93.71-7.34-.88-10.74-2.48,0-.88,0-1.77,0-2.65C214.16,364.6,218.15,365.44,220.3,370.1Z"/><path class="cls-92" d="M156.79,333c0,1.88-.07,3.76-.11,5.63-13.19-10.68-21.66-24.82-29.06-39.74-1.74-2.86-1.89-5.69.22-8.46l7.62,8.68c2.08,8.39,5.84,15.74,13,21C148.92,325.87,154.69,328.23,156.79,333Z"/><path class="cls-107" d="M119.8,219.46H125c-.42,14.11-5.41,28.22,0,42.35q.06,6.58.11,13.18c-8.71-2-5.52-10.19-7.65-15.46-1.52-3.76,0-8.49-1-12.7-.86-2.69-.66-5.44-.46-8.19,1.91-5.17.54-10.67,1.58-15.93A7.43,7.43,0,0,1,119.8,219.46Z"/><path class="cls-92" d="M117.15,245.76c4.88,9.13.93,20.66,7.9,29.23l2.79,15.42q-.12,4.21-.22,8.45-5.3-15.89-10.57-31.78A36.12,36.12,0,0,1,117.15,245.76Z"/><path class="cls-76" d="M442.25,169.06c.11,1.05.23,2.1.35,3.15-1.66,7-6.21,11.22-13,13.26l-1.13-1.32c2.22-6.13,7.2-10.18,11.25-14.93h0C440.51,168,441.34,168,442.25,169.06Z"/><path class="cls-33" d="M405.33,205.83c-7.12-.23-14.56,2.72-21.2-2.16C391.19,204.47,398.63,201.43,405.33,205.83Z"/><path class="cls-89" d="M418.57,190.32l2.63-2.63c2.19-2,4.26-4.35,7.74-2.79l.69.57c-.6,4.88-3.73,7-8.26,7.64l-2.81-.22c-.87-.57-1.16-1.15-.87-1.72S418.27,190.32,418.57,190.32Z"/><path class="cls-108" d="M331.3,399.31A12.86,12.86,0,0,0,328,389.8c-28.38-31.84-56.3-64.09-85-95.68-9-9.94-6.33-21.21-6.93-32.33,22.83-16,47.06-12.93,72-6.22,6.32,1.7,13.61.15,20.52.73,17,1.43,34,2,51.07,2.83,9.4.47,19.92,10.49,20.32,19.72,1.32,30.72-2.69,61.28-3.5,91.94-.35,13.53-6.36,27.49-7,41.77C379.27,425.26,364,427.23,351,418,343.55,412.63,336.41,407.09,331.3,399.31Z"/><path class="cls-92" d="M175.26,457.45c2.61.16,5.52-.38,7.77.59,20.3,8.76,36.95,1.88,52.33-11.51,1.5-1.3,3.93-1.56,5.92-2.3l-2.61,8c-6.06,3.64-10.54,10-18.32,10.68a59.76,59.76,0,0,1-42.55,0l0,0c-1-1.11-2.51-1.55-3.37-2.81A3,3,0,0,1,175.26,457.45Z"/><path class="cls-109" d="M109.1,423.15l2.66,2.64c2.22,2.42,7.15,3.08,5.26,8.15a109.19,109.19,0,0,1-34-27l.24-.21c6.34-2.66,8.19,4.44,12.67,5.83h0C100.71,415.56,104.24,420.19,109.1,423.15Z"/><path class="cls-110" d="M117,433.94q-2.62-4.08-5.26-8.15c9.42,4.28,16.29,12.81,26.44,15.88a2.47,2.47,0,0,1,0,3.33c-1.9.66-3.72.75-5.38-.63Z"/><path class="cls-111" d="M138.2,444.31v-2.64c10.4,2.86,21.17,4.92,29.14,13.17a5.82,5.82,0,0,1-3.1,1.82,12,12,0,0,1-5.26-1.29c-3.8-3.18-9.11-2.86-13.08-5.64-.78-.06-1.56-.14-2.34-.26C141.56,448,139.05,447,138.2,444.31Z"/><path class="cls-112" d="M177.8,462.89a101.87,101.87,0,0,0,42.55,0C206.17,470.64,192,470.36,177.8,462.89Z"/><path class="cls-112" d="M159.46,454.78l5.22.2c3.27,2.24,8.59.27,10.59,5.14l2.56,2.81c-7.83-.8-15.18-2.9-21.49-7.87Q157.72,453,159.46,454.78Z"/><path class="cls-103" d="M159.46,454.78l-3.12.28c-4.39,0-8.27-1-10.43-5.33A15.34,15.34,0,0,1,159.46,454.78Z"/><path class="cls-113" d="M138.2,444.31l5.36,5.16a14.29,14.29,0,0,1-10.74-5.1Z"/><path class="cls-114" d="M241.72,439.45c4.59-15.18,7-30.34-.3-45.44,3-1.58,3.74,1.11,5.08,2.68.25.86.49,1.72.74,2.58C255.69,415.1,253.69,429.65,241.72,439.45Z"/><path class="cls-115" d="M246.5,396.69,241.42,394c-4.09-7.74-12-11.05-18.54-15.88.05-1.84.1-3.69.16-5.53C236.1,375.53,243.12,384.33,246.5,396.69Z"/><path class="cls-116" d="M143.52,158.65c7.55-14.72,20.93-23.23,33.44-33.13,12.67-10,28.37-13.87,42.19-17.46,18.23-4.73,39.38-7.75,58.38,3a34.76,34.76,0,0,0,14.76,4.69c8.44.42,14,4.17,17.82,11.22l-7.88-.09c-25.33-15.79-52.73-17.3-81.27-12.23-18.29,3.24-35.34,8.71-48.48,22.75-6.58.79-9.78,5.83-13.22,10.56l-2.62,2.62a18.18,18.18,0,0,0-7.87,8Z"/><path class="cls-117" d="M117.15,245.76q-.06,10.67-.1,21.32c-4.53-17.89-4.89-36,1-53.37,2.32-6.86,5-13.68,6.92-20.71l2.68,0c-1.19,9.24-3.28,18.21-7.86,26.44-.12.91-.25,1.81-.37,2.71-2.8,5,.7,10.94-2.29,15.93C117.14,240.65,117.15,243.21,117.15,245.76Z"/><path class="cls-84" d="M418.57,190.32c0,.86,0,1.71,0,2.57-15.32,5.14-30.51,8.12-44.93-2.57C388.61,192.27,403.59,194.31,418.57,190.32Z"/><path class="cls-118" d="M389.58,65.91c2.39,5.32,9.23,7.13,10.53,13.31-14.71-7.23-26.65-18.64-40.75-27-9.22-5.45-21.06-6.09-28.08-15.3,6.3-1.06,10.88,4,16.72,4.63,13.17.07,21.43,9.41,31,16.35,3.51,2.7,6.77,5.73,10.55,8.08Z"/><path class="cls-119" d="M389.51,66c-5.43-.2-8.41-3.59-10.55-8.08C384.11,58.5,387.26,61.68,389.51,66Z"/><path class="cls-84" d="M302.2,26.36c-10.19,1.08-20.25-.58-30-2.78-27.32-6.13-54.05.61-81,2.82a3.79,3.79,0,0,1-5.48-.13c10.93-5.14,22.72-6.49,34.5-7.9,5.87-3.26,12.72.83,18.59-2.47h10.48c7.54,4.94,15.94,1.49,23.89,2.49,9.93.4,18.7,7,29,5.39C302.18,24.64,302.21,25.5,302.2,26.36Z"/><path class="cls-120" d="M185.68,26.27l5.48.13c-11.41,3.69-21.44,11.89-34.4,10.59C166,32.43,174.61,26,185.68,26.27Z"/><path class="cls-91" d="M238.77,15.9c-5.68,4.73-12.4,1.62-18.59,2.47,0-.81.06-1.62.11-2.43Z"/><path class="cls-118" d="M331.28,37c-8.09.12-16.2.29-21.17-7.94C318.16,29,324.6,33.33,331.28,37Z"/><path class="cls-121" d="M93.26,71.44l7.82-5.54c0,.9,0,1.8.07,2.7C98,73.67,94.56,78.44,88,79.42Z"/><path class="cls-120" d="M151.42,39.58c-3.52,6.17-9.29,7.84-15.85,8C140.14,43.47,144.5,39,151.42,39.58Z"/><path class="cls-122" d="M111.12,204.53v76.79C97.23,271.49,96.72,219.15,111.12,204.53Z"/><path class="cls-123" d="M53.54,367.62c-4-5.92-10-10.71-10.1-18.73,7.07-2.69,8.64,4.55,10.14,7.49,8.25,16.15,22.09,28,31.72,43-1.77,1.59-3.52,1.47-5.26-.05Z"/><path class="cls-103" d="M22.06,187.87a20.65,20.65,0,0,1,2.35-.18c1.38,8.93-.75,17.77-3.27,25.89-4.95,15.93-4.49,32-4.5,48.18-.79,0-1.58,0-2.37-.08q0-22.34-.08-44.68C18.42,207.72,20.13,197.76,22.06,187.87Z"/><path class="cls-124" d="M428.94,184.9l-7.74,2.8a35.18,35.18,0,0,1,18.55-18.48C439.44,176.72,431.69,179.09,428.94,184.9Z"/><path class="cls-124" d="M431.82,113.63c5.06,7.26,12.27,13.56,10.6,23.81-3.62-8.38-12.21-14-13.22-23.83C430.08,112.39,431,112.4,431.82,113.63Z"/><path class="cls-124" d="M442.25,169.06c-.83.1-1.66.15-2.5.17.48-10.64,4-21,2.66-31.8C448.47,148,443.39,158.52,442.25,169.06Z"/><path class="cls-105" d="M80,399.31l5.26.05,10.6,13.18c-5.26.32-7.85-5.2-12.68-5.82Z"/><path class="cls-105" d="M109.1,423.15c-6.69-.69-9.94-5.65-13.2-10.61C102.59,413.23,105.85,418.18,109.1,423.15Z"/><path class="cls-125" d="M431.82,113.63c-.87,0-1.75,0-2.62,0-2.05-4.77-8.09-7.06-8.11-13.07l8,5.34C430,108.46,430.9,111.05,431.82,113.63Z"/><path class="cls-103" d="M27.08,174.36c-.17-4.47.62-8.46,5.33-10.45C32.67,168.43,32,172.49,27.08,174.36Z"/><path class="cls-125" d="M410.68,89.81c5,.39,7.7,3,7.83,8C413.42,97.58,412.46,93.29,410.68,89.81Z"/><path class="cls-126" d="M66.82,100.5a16,16,0,0,1,7.91-8C74.57,97.61,71.76,100.1,66.82,100.5Z"/><path class="cls-103" d="M175.27,460.12,164.68,455l2.66-.14c2.89.12,6-.31,7.92,2.61C175.26,458.34,175.27,459.23,175.27,460.12Z"/><path class="cls-92" d="M117.14,238.1c.6-5.33-2-11.12,2.29-15.93C119,227.53,121.48,233.3,117.14,238.1Z"/></g></g></svg>